<svg width="70" height="70" viewBox="0 0 70 70" fill="none" xmlns="http://www.w3.org/2000/svg">
<path d="M68.8333 11.6667C69.4776 11.6667 70 11.1443 70 10.5V5.83333C70 5.18904 69.4776 4.66667 68.8333 4.66667H39.6667V1.16667C39.6667 0.522375 39.1443 0 38.5 0H31.5C30.8557 0 30.3333 0.522375 30.3333 1.16667V4.66667H1.16667C0.522375 4.66667 0 5.18904 0 5.83333V10.5C0 11.1443 0.522375 11.6667 1.16667 11.6667H2.33333V49H1.16667C0.522375 49 0 49.5224 0 50.1667V54.8333C0 55.4776 0.522375 56 1.16667 56H21.714L17.5595 68.4647C17.3559 69.076 17.6864 69.7366 18.2977 69.9402C18.4167 69.9799 18.5412 70 18.6667 70H23.3333C23.8357 70.0001 24.2817 69.6786 24.4405 69.202L28.8412 56H31.5V68.8333C31.5 69.4776 32.0224 70 32.6667 70H37.3333C37.9776 70 38.5 69.4776 38.5 68.8333V56H41.1588L45.5595 69.202C45.7183 69.6786 46.1643 70.0001 46.6667 70H51.3333C51.9776 70.0001 52.5001 69.4779 52.5003 68.8336C52.5003 68.7082 52.4802 68.5837 52.4405 68.4647L48.286 56H68.8333C69.4776 56 70 55.4776 70 54.8333V50.1667C70 49.5224 69.4776 49 68.8333 49H67.6667V11.6667H68.8333ZM32.6667 2.33333H37.3333V4.66667H32.6667V2.33333ZM2.33333 7H67.6667V9.33333H2.33333V7ZM22.4922 67.6667H20.2848L24.1745 56H26.3818L22.4922 67.6667ZM36.1667 67.6667H33.8333V56H36.1667V67.6667ZM49.7152 67.6667H47.5078L43.6182 56H45.8255L49.7152 67.6667ZM67.6667 53.6667H2.33333V51.3333H67.6667V53.6667ZM65.3333 49H4.66667V11.6667H65.3333V49Z" fill="url(#paint0_linear)"/>
<path d="M24.6401 41.3775L22.8516 43.166H18.668V45.4993H23.3346C23.6441 45.4993 23.9407 45.3763 24.1595 45.1575L26.4613 42.8557C33.1504 47.4367 42.2625 45.9231 47.1113 39.4257L48.1765 40.4908C48.3952 40.7096 48.6918 40.8327 49.0013 40.8327H53.668V38.4993H49.4843L48.4016 37.4167C51.5764 31.4435 50.3914 24.0878 45.5013 19.4138V17.4993H49.0013V15.166H44.3346C43.6903 15.166 43.168 15.6884 43.168 16.3327V17.5728C36.1249 13.0613 26.7582 15.1134 22.2466 22.1564C18.3099 28.3018 19.3162 36.3808 24.6401 41.3728V41.3775ZM28.1506 41.1663L28.8261 40.4908L27.1765 38.8412L26.2886 39.729C23.9642 37.5821 22.5174 34.6502 22.2275 31.4993H24.5701C25.2087 37.2573 30.3941 41.4073 36.1521 40.7685C37.8523 40.58 39.4807 39.9784 40.8953 39.0162L42.5601 40.681C38.3196 43.8074 32.5918 44.0003 28.1506 41.1663ZM35.0013 22.166C39.5116 22.166 43.168 25.8223 43.168 30.3327C43.168 34.843 39.5116 38.4993 35.0013 38.4993C30.491 38.4993 26.8346 34.843 26.8346 30.3327C26.8397 25.8245 30.4932 22.1711 35.0013 22.166ZM46.3261 35.3412L44.6765 36.9908L45.4465 37.7608C45.1013 38.2449 44.7231 38.7044 44.3148 39.1363L42.6651 37.4867C44.2091 35.8415 45.1797 33.7414 45.4325 31.4993H47.7751C47.6433 32.9437 47.2649 34.3548 46.6563 35.6713L46.3261 35.3412ZM44.8935 22.166C46.5396 24.1543 47.5443 26.595 47.7751 29.166H45.4325C44.8806 24.2962 41.0378 20.4533 36.168 19.9015V17.5588C38.739 17.7897 41.1797 18.7943 43.168 20.4405V22.166H44.8935ZM33.8346 17.5588V19.9015C28.9648 20.4533 25.122 24.2962 24.5701 29.166H22.2275C22.7972 23.007 27.6757 18.1286 33.8346 17.5588Z" fill="url(#paint1_linear)"/>
<path d="M51.3359 14H53.6693V16.3333H51.3359V14Z" fill="url(#paint2_linear)"/>
<path d="M56.0039 14H60.6706V16.3333H56.0039V14Z" fill="url(#paint3_linear)"/>
<path d="M51.3359 17.5H60.6693V19.8333H51.3359V17.5Z" fill="url(#paint4_linear)"/>
<path d="M56.0039 36.166H60.6706V38.4993H56.0039V36.166Z" fill="url(#paint5_linear)"/>
<path d="M56.0039 40.834H60.6706V43.1673H56.0039V40.834Z" fill="url(#paint6_linear)"/>
<path d="M11.668 39.666H16.3346V41.9993H11.668V39.666Z" fill="url(#paint7_linear)"/>
<path d="M9.33594 44.334H16.3359V46.6673H9.33594V44.334Z" fill="url(#paint8_linear)"/>
<path d="M9.33594 14H18.6693V16.3333H9.33594V14Z" fill="url(#paint9_linear)"/>
<path d="M9.33594 18.666H11.6693V20.9993H9.33594V18.666Z" fill="url(#paint10_linear)"/>
<path d="M14.0039 18.666H18.6706V20.9993H14.0039V18.666Z" fill="url(#paint11_linear)"/>
<defs>
<linearGradient id="paint0_linear" x1="-2.51067" y1="35" x2="85.96" y2="35" gradientUnits="userSpaceOnUse">
<stop stop-color="#E93E3A"/>
<stop offset="0.357" stop-color="#ED683C"/>
<stop offset="0.718" stop-color="#F3903F"/>
<stop offset="1" stop-color="#FDC70C"/>
</linearGradient>
<linearGradient id="paint1_linear" x1="-2.50936" y1="30.3331" x2="85.9613" y2="30.3331" gradientUnits="userSpaceOnUse">
<stop stop-color="#E93E3A"/>
<stop offset="0.357" stop-color="#ED683C"/>
<stop offset="0.718" stop-color="#F3903F"/>
<stop offset="1" stop-color="#FDC70C"/>
</linearGradient>
<linearGradient id="paint2_linear" x1="-2.50806" y1="15.1667" x2="85.9626" y2="15.1667" gradientUnits="userSpaceOnUse">
<stop stop-color="#E93E3A"/>
<stop offset="0.357" stop-color="#ED683C"/>
<stop offset="0.718" stop-color="#F3903F"/>
<stop offset="1" stop-color="#FDC70C"/>
</linearGradient>
<linearGradient id="paint3_linear" x1="-2.50676" y1="15.1667" x2="85.9639" y2="15.1667" gradientUnits="userSpaceOnUse">
<stop stop-color="#E93E3A"/>
<stop offset="0.357" stop-color="#ED683C"/>
<stop offset="0.718" stop-color="#F3903F"/>
<stop offset="1" stop-color="#FDC70C"/>
</linearGradient>
<linearGradient id="paint4_linear" x1="-2.50806" y1="18.6667" x2="85.9626" y2="18.6667" gradientUnits="userSpaceOnUse">
<stop stop-color="#E93E3A"/>
<stop offset="0.357" stop-color="#ED683C"/>
<stop offset="0.718" stop-color="#F3903F"/>
<stop offset="1" stop-color="#FDC70C"/>
</linearGradient>
<linearGradient id="paint5_linear" x1="-2.50676" y1="37.3327" x2="85.9639" y2="37.3327" gradientUnits="userSpaceOnUse">
<stop stop-color="#E93E3A"/>
<stop offset="0.357" stop-color="#ED683C"/>
<stop offset="0.718" stop-color="#F3903F"/>
<stop offset="1" stop-color="#FDC70C"/>
</linearGradient>
<linearGradient id="paint6_linear" x1="-2.50676" y1="42.0007" x2="85.9639" y2="42.0007" gradientUnits="userSpaceOnUse">
<stop stop-color="#E93E3A"/>
<stop offset="0.357" stop-color="#ED683C"/>
<stop offset="0.718" stop-color="#F3903F"/>
<stop offset="1" stop-color="#FDC70C"/>
</linearGradient>
<linearGradient id="paint7_linear" x1="-2.50936" y1="40.8327" x2="85.9613" y2="40.8327" gradientUnits="userSpaceOnUse">
<stop stop-color="#E93E3A"/>
<stop offset="0.357" stop-color="#ED683C"/>
<stop offset="0.718" stop-color="#F3903F"/>
<stop offset="1" stop-color="#FDC70C"/>
</linearGradient>
<linearGradient id="paint8_linear" x1="-2.50806" y1="45.5007" x2="85.9626" y2="45.5007" gradientUnits="userSpaceOnUse">
<stop stop-color="#E93E3A"/>
<stop offset="0.357" stop-color="#ED683C"/>
<stop offset="0.718" stop-color="#F3903F"/>
<stop offset="1" stop-color="#FDC70C"/>
</linearGradient>
<linearGradient id="paint9_linear" x1="-2.50806" y1="15.1667" x2="85.9626" y2="15.1667" gradientUnits="userSpaceOnUse">
<stop stop-color="#E93E3A"/>
<stop offset="0.357" stop-color="#ED683C"/>
<stop offset="0.718" stop-color="#F3903F"/>
<stop offset="1" stop-color="#FDC70C"/>
</linearGradient>
<linearGradient id="paint10_linear" x1="-2.50806" y1="19.8327" x2="85.9626" y2="19.8327" gradientUnits="userSpaceOnUse">
<stop stop-color="#E93E3A"/>
<stop offset="0.357" stop-color="#ED683C"/>
<stop offset="0.718" stop-color="#F3903F"/>
<stop offset="1" stop-color="#FDC70C"/>
</linearGradient>
<linearGradient id="paint11_linear" x1="-2.50676" y1="19.8327" x2="85.9639" y2="19.8327" gradientUnits="userSpaceOnUse">
<stop stop-color="#E93E3A"/>
<stop offset="0.357" stop-color="#ED683C"/>
<stop offset="0.718" stop-color="#F3903F"/>
<stop offset="1" stop-color="#FDC70C"/>
</linearGradient>
</defs>
</svg>
