<svg width="58" height="70" viewBox="0 0 58 70" fill="none" xmlns="http://www.w3.org/2000/svg">
<path d="M52.4449 3.45719H50.1647V0H47.8845V3.45719H43.3241V0H41.0438V3.45719H36.4834V0H34.2032V3.45719H29.6428V0H27.3626V3.45719H22.8021V0H20.5219V3.45719H15.9615V0H13.6813V3.45719H9.12085V0H6.84064V3.45719H4.56043C2.04179 3.45719 0 5.52099 0 8.06678V65.6866C0 67.596 1.53131 69.1438 3.42032 69.1438H53.585C55.474 69.1438 57.0053 67.596 57.0053 65.6866V8.06678C57.0053 5.52099 54.9636 3.45719 52.4449 3.45719ZM4.56043 5.76198H6.84064V9.21917H9.12085V5.76198H13.6813V9.21917H15.9615V5.76198H20.5219V9.21917H22.8021V5.76198H27.3626V9.21917H29.6428V5.76198H34.2032V9.21917H36.4834V5.76198H41.0438V9.21917H43.3241V5.76198H47.8845V9.21917H50.1647V5.76198H52.4449C53.7043 5.76198 54.7251 6.79381 54.7251 8.06678V13.8288H2.28021V8.06678C2.28021 6.79381 3.30104 5.76198 4.56043 5.76198ZM53.585 66.839H3.42032C2.7907 66.839 2.28021 66.323 2.28021 65.6866V60.4363C2.97041 60.851 3.75751 61.0723 4.56043 61.077H52.4449C53.2478 61.0723 54.0349 60.851 54.7251 60.4363V65.6866C54.7251 66.323 54.2146 66.839 53.585 66.839ZM52.4449 58.7722H4.56043C3.30104 58.7722 2.28021 57.7404 2.28021 56.4674V16.1336H54.7251V56.4674C54.7251 57.7404 53.7043 58.7722 52.4449 58.7722Z" fill="url(#paint0_linear)"/>
<path d="M49.0199 20.7441H14.8167C14.1871 20.7441 13.6766 21.2601 13.6766 21.8965V28.8109H7.97604C7.34642 28.8109 6.83594 29.3269 6.83594 29.9633V54.1636C6.83594 54.8001 7.34642 55.316 7.97604 55.316H42.1793C42.8089 55.316 43.3194 54.8001 43.3194 54.1636V47.2493H49.0199C49.6495 47.2493 50.16 46.7333 50.16 46.0969V21.8965C50.16 21.2601 49.6495 20.7441 49.0199 20.7441ZM47.8798 28.8109H43.3194V23.0489H47.8798V28.8109ZM41.0391 44.9445H36.4787V39.1825H41.0391V44.9445ZM15.9568 39.1825H20.5172V44.9445H15.9568V39.1825ZM13.6766 44.9445H9.11615V39.1825H13.6766V44.9445ZM15.9568 31.1157H20.5172V36.8777H15.9568V31.1157ZM34.1985 28.8109H29.6381V23.0489H34.1985V28.8109ZM36.4787 23.0489H41.0391V28.8109H36.4787V23.0489ZM34.1985 31.1157V36.8777H29.6381V31.1157H34.1985ZM27.3579 28.8109H22.7974V23.0489H27.3579V28.8109ZM27.3579 31.1157V36.8777H22.7974V31.1157H27.3579ZM27.3579 39.1825V44.9445H22.7974V39.1825H27.3579ZM20.5172 47.2493V53.0113H15.9568V47.2493H20.5172ZM22.7974 47.2493H27.3579V53.0113H22.7974V47.2493ZM29.6381 47.2493H34.1985V53.0113H29.6381V47.2493ZM29.6381 44.9445V39.1825H34.1985V44.9445H29.6381ZM36.4787 36.8777V31.1157H41.0391V36.8777H36.4787ZM43.3194 31.1157H47.8798V36.8777H43.3194V31.1157ZM15.9568 23.0489H20.5172V28.8109H15.9568V23.0489ZM13.6766 31.1157V36.8777H9.11615V31.1157H13.6766ZM9.11615 47.2493H13.6766V53.0113H9.11615V47.2493ZM41.0391 53.0113H36.4787V47.2493H41.0391V53.0113ZM43.3194 44.9445V39.1825H47.8798V44.9445H43.3194Z" fill="url(#paint1_linear)"/>
<path d="M3.41797 62.2305H53.5827V64.5353H3.41797V62.2305Z" fill="url(#paint2_linear)"/>
<defs>
<linearGradient id="paint0_linear" x1="-1.40119" y1="34.5719" x2="67.3689" y2="34.5719" gradientUnits="userSpaceOnUse">
<stop stop-color="#E93E3A"/>
<stop offset="0.353" stop-color="#ED683C"/>
<stop offset="0.719" stop-color="#F3903F"/>
<stop offset="1" stop-color="#FDC70C"/>
</linearGradient>
<linearGradient id="paint1_linear" x1="-1.4059" y1="38.0301" x2="67.3642" y2="38.0301" gradientUnits="userSpaceOnUse">
<stop stop-color="#E93E3A"/>
<stop offset="0.353" stop-color="#ED683C"/>
<stop offset="0.719" stop-color="#F3903F"/>
<stop offset="1" stop-color="#FDC70C"/>
</linearGradient>
<linearGradient id="paint2_linear" x1="-1.40354" y1="63.3829" x2="67.3666" y2="63.3829" gradientUnits="userSpaceOnUse">
<stop stop-color="#E93E3A"/>
<stop offset="0.353" stop-color="#ED683C"/>
<stop offset="0.719" stop-color="#F3903F"/>
<stop offset="1" stop-color="#FDC70C"/>
</linearGradient>
</defs>
</svg>
