<svg width="62" height="84" viewBox="0 0 62 84" fill="none" xmlns="http://www.w3.org/2000/svg">
<path d="M61.3628 24.9856C60.9437 24.642 60.3641 24.5712 59.8746 24.8036C56.0878 26.7338 52.4977 29.0275 49.1548 31.6524C50.7597 25.1315 51.4137 18.4131 51.0966 11.7052C51.0397 10.9341 50.3686 10.355 49.5976 10.4117C49.2658 10.4362 48.9534 10.578 48.7166 10.812C44.4734 15.2022 40.8294 20.1342 37.8792 25.4798C37.4954 16.9791 35.5723 8.61869 32.2036 0.804765C31.8746 0.10494 31.0407 -0.195535 30.3411 0.13329C30.0459 0.272065 29.8084 0.50954 29.6696 0.804765C26.3009 8.61869 24.3778 16.9791 23.994 25.4798C21.0439 20.1342 17.3998 15.2022 13.1566 10.812C12.6022 10.273 11.7158 10.2854 11.1768 10.8398C10.9493 11.0738 10.8107 11.3798 10.785 11.7052C10.4665 18.4129 11.1191 25.1313 12.7226 31.6524C9.37976 29.0275 5.78963 26.7338 2.0028 24.8036C1.3049 24.4707 0.469279 24.7665 0.136429 25.4644C-0.00427079 25.7592 -0.0373458 26.094 0.0428042 26.4108C2.56245 35.1538 6.75458 43.3249 12.3866 50.4712C11.7741 50.6222 11.342 51.1691 11.3366 51.7998V82.5998C11.3366 83.3729 11.9635 83.9998 12.7366 83.9998H49.1366C49.9098 83.9998 50.5366 83.3729 50.5366 82.5998V51.7998C50.5322 51.1701 50.1019 50.6232 49.4908 50.4712C55.1221 43.3247 59.3137 35.1536 61.8332 26.4108C61.9659 25.8845 61.7826 25.3293 61.3628 24.9856ZM45.295 35.1118C44.98 36.124 44.6244 37.1614 44.245 38.182C43.8082 39.3392 43.3597 40.4771 42.8996 41.5952C42.768 41.9144 42.6322 42.2196 42.4992 42.5346C42.1716 43.3144 41.8426 44.0914 41.5066 44.8432C41.3204 45.2632 41.1314 45.6552 40.9466 46.0612C40.6666 46.6814 40.374 47.303 40.0842 47.898C39.8686 48.3404 39.6516 48.7576 39.436 49.1846C39.2204 49.6116 39.016 49.9994 38.8116 50.3942H35.4166L35.4656 50.2262C35.6322 49.6802 35.7904 49.095 35.9416 48.4748C35.9864 48.2928 36.0256 48.087 36.069 47.898C36.1726 47.4472 36.2776 46.9978 36.3728 46.5134C36.4204 46.274 36.4624 46.0108 36.5128 45.763C36.5968 45.3038 36.6836 44.8488 36.762 44.363C36.8096 44.069 36.8502 43.754 36.902 43.4516C36.9706 42.9868 37.042 42.529 37.1036 42.0516C37.147 41.7142 37.1834 41.3586 37.224 41.0128C37.28 40.541 37.3374 40.0748 37.3864 39.5876C37.4256 39.2096 37.455 38.8162 37.49 38.4298C37.532 37.9538 37.5782 37.4848 37.6146 36.9962C37.6454 36.5846 37.6692 36.1562 37.6958 35.7362C37.7266 35.2574 37.7602 34.7828 37.7854 34.2942C37.8092 33.8532 37.8232 33.401 37.8414 32.9544C37.8596 32.5078 37.882 32.0878 37.8946 31.6454C40.6194 25.7463 44.1482 20.2532 48.3806 15.3228C48.3033 22.0326 47.2641 28.6968 45.295 35.1118ZM30.9366 5.15037C33.6204 12.4739 35.0407 20.2004 35.1366 27.9998C35.1366 29.1198 35.1226 30.216 35.0946 31.294C35.0636 37.4128 34.2873 43.5053 32.7832 49.4366C32.6866 49.7712 32.583 50.096 32.4752 50.3998H29.3966C29.2874 50.0918 29.1829 49.765 29.083 49.4198C28.7666 48.3782 28.4768 47.1798 28.2164 45.8638C27.3484 41.0534 26.8675 36.1812 26.7786 31.294C26.7506 30.2146 26.7366 29.1198 26.7366 27.9998C26.8343 20.2005 28.2544 12.4743 30.9366 5.15037ZM23.987 31.651C23.9996 32.0864 24.0234 32.5092 24.0402 32.939C24.0584 33.394 24.0724 33.8546 24.0962 34.3026C24.12 34.7814 24.1536 35.2448 24.1844 35.7152C24.211 36.1436 24.2348 36.579 24.267 37.0004C24.3034 37.4778 24.3482 37.937 24.3888 38.4004C24.4238 38.7966 24.456 39.2012 24.4952 39.5876C24.5428 40.065 24.6002 40.52 24.6534 40.9876C24.6954 41.3432 24.7318 41.7086 24.7766 42.0544C24.8382 42.529 24.9082 42.9784 24.9754 43.4348C25.0216 43.7442 25.0622 44.0676 25.1154 44.3686C25.1924 44.8488 25.2778 45.2968 25.3618 45.7518C25.408 46.0024 25.45 46.2698 25.5018 46.5134C25.5956 46.9908 25.6992 47.4304 25.8 47.8756C25.8448 48.0702 25.8854 48.283 25.9316 48.472C26.0828 49.0894 26.241 49.6732 26.4062 50.2178C26.423 50.2794 26.4426 50.341 26.4608 50.4026H23.0672C22.86 50.0106 22.6472 49.606 22.4456 49.1986C22.2286 48.7688 22.0088 48.3488 21.7932 47.9022C21.5132 47.3254 21.2332 46.722 20.9532 46.1214C20.7558 45.693 20.5556 45.2814 20.3596 44.8376C20.0502 44.146 19.7478 43.4292 19.4468 42.7152C19.2872 42.3358 19.1234 41.9704 18.9652 41.5854C18.5102 40.4752 18.0622 39.3454 17.6296 38.196C17.2474 37.1698 16.8918 36.1324 16.5754 35.116C14.6088 28.7015 13.5715 22.0384 13.4954 15.3298C17.7311 20.2585 21.2619 25.7512 23.987 31.651ZM14.026 36.3284C14.32 37.2538 14.649 38.2086 15.006 39.1746C15.4288 40.2946 15.8637 41.3983 16.3108 42.4856C16.4578 42.8468 16.609 43.194 16.7574 43.5496C17.0612 44.272 17.365 44.986 17.6758 45.6846C17.8536 46.0836 18.03 46.4742 18.2092 46.8648C18.506 47.513 18.8028 48.1444 19.1024 48.7674C19.2816 49.1384 19.4594 49.5066 19.6386 49.8678C19.7254 50.0428 19.8108 50.229 19.8976 50.3998H15.9356C15.6276 50.04 15.3266 49.6718 15.0242 49.3022C10.1503 43.2078 6.347 36.3298 3.7766 28.9616C7.4033 31.1106 10.8331 33.5758 14.026 36.3284ZM47.7366 81.1998H14.1366V53.1998H47.7366V81.1998ZM46.849 49.3036C46.5466 49.6718 46.2456 50.04 45.9376 50.3998H41.9714C42.0582 50.2276 42.145 50.04 42.2318 49.865C42.4082 49.5122 42.5818 49.1496 42.7568 48.787C43.0648 48.1486 43.3709 47.4976 43.6752 46.834C43.846 46.4602 44.0154 46.0878 44.1834 45.714C44.5007 44.998 44.8139 44.27 45.1228 43.53C45.2628 43.1842 45.4154 42.8454 45.5582 42.4954C46.0034 41.4062 46.4393 40.3002 46.8658 39.1774C47.2242 38.2142 47.5532 37.2608 47.8458 36.3354C51.0387 33.5803 54.4689 31.1134 58.0966 28.963C55.5269 36.3313 51.7235 43.2095 46.849 49.3036Z" fill="white"/>
<path d="M42.1445 75.6016H44.9445V78.4016H42.1445V75.6016Z" fill="white"/>
<path d="M42.1445 70H44.9445V72.8H42.1445V70Z" fill="white"/>
<path d="M36.543 75.6016H39.343V78.4016H36.543V75.6016Z" fill="white"/>
</svg>
