<svg width="56" height="86" viewBox="0 0 56 86" fill="none" xmlns="http://www.w3.org/2000/svg">
<path d="M46.3104 16.2171L50.8122 11.7192C51.3728 11.1588 51.3728 10.2503 50.8122 9.68989L45.736 4.61508C40.802 -0.301493 33.2304 -1.4134 27.0898 1.87676C18.6846 -0.407517 10.0181 4.5505 7.73258 12.9508C7.36371 14.3069 7.17776 15.706 7.17991 17.1112V77.3889H1.43598C0.642961 77.3889 0 78.0315 0 78.8241V84.5648C0 85.3574 0.642961 86 1.43598 86H35.8996C36.6926 86 37.3355 85.3574 37.3355 84.5648V78.8241C37.3355 78.0315 36.6926 77.3889 35.8996 77.3889H30.1556V73.0834C30.1556 72.2908 29.5127 71.6482 28.7196 71.6482H22.9757C22.1827 71.6482 21.5397 72.2908 21.5397 73.0834V77.3889H15.7958V17.1112C15.785 14.4658 17.2488 12.0344 19.5925 10.805C17.7057 16.4699 19.1777 22.7138 23.3965 26.9408L28.4727 32.0156C29.0334 32.5759 29.9424 32.5759 30.5031 32.0156L36.4409 26.0811C37.5705 26.786 38.8758 27.1589 40.2075 27.1575C44.1708 27.1528 47.3827 23.9427 47.3874 19.9816C47.3888 18.6506 47.0157 17.3462 46.3104 16.2171ZM24.4117 74.5185H27.2837V77.3889H24.4117V74.5185ZM34.4636 80.2593V83.1296H2.87196V80.2593H34.4636ZM15.8762 10.0056C13.9766 11.8814 12.9125 14.4423 12.9238 17.1112V77.3889H10.0519V17.1112C10.0598 9.98087 15.8414 4.20247 22.9757 4.19458C23.25 4.19458 23.5214 4.23907 23.7942 4.25629C23.6635 4.37828 23.5243 4.48735 23.3965 4.61508C22.5995 5.41466 21.8905 6.29694 21.2813 7.24721C19.2352 7.5791 17.3449 8.5439 15.8762 10.0056ZM29.4879 28.9716L25.4269 24.9114C20.3798 19.8668 20.3802 11.688 25.4277 6.64372C30.4751 1.59941 38.6584 1.59976 43.7055 6.64443L47.7665 10.7046L29.4879 28.9716ZM40.2075 24.2871C39.6442 24.2862 39.0869 24.1736 38.5676 23.9556L44.1837 18.3426C44.4018 18.8616 44.5145 19.4186 44.5154 19.9816C44.5154 22.3595 42.5867 24.2871 40.2075 24.2871Z" fill="url(#paint0_linear)"/>
<path d="M38.7734 28.5938H41.6454V31.4641H38.7734V28.5938Z" fill="url(#paint1_linear)"/>
<path d="M38.7734 32.8984H41.6454V35.7688H38.7734V32.8984Z" fill="url(#paint2_linear)"/>
<path d="M45.2852 27.0851L47.3153 25.0547L49.3468 27.0837L47.3167 29.1141L45.2852 27.0851Z" fill="url(#paint3_linear)"/>
<path d="M48.332 30.127L50.3632 28.0977L52.3937 30.1277L50.3625 32.1571L48.332 30.127Z" fill="url(#paint4_linear)"/>
<path d="M48.8164 18.5469H51.6884V21.4172H48.8164V18.5469Z" fill="url(#paint5_linear)"/>
<path d="M53.125 18.5469H55.997V21.4172H53.125V18.5469Z" fill="url(#paint6_linear)"/>
<defs>
<linearGradient id="paint0_linear" x1="-5.0777" y1="43" x2="74.5949" y2="43" gradientUnits="userSpaceOnUse">
<stop stop-color="#E93E3A"/>
<stop offset="0.375" stop-color="#ED683C"/>
<stop offset="0.69" stop-color="#F3903F"/>
<stop offset="1" stop-color="#FDC70C"/>
</linearGradient>
<linearGradient id="paint1_linear" x1="-5.07578" y1="30.029" x2="74.5968" y2="30.029" gradientUnits="userSpaceOnUse">
<stop stop-color="#E93E3A"/>
<stop offset="0.375" stop-color="#ED683C"/>
<stop offset="0.69" stop-color="#F3903F"/>
<stop offset="1" stop-color="#FDC70C"/>
</linearGradient>
<linearGradient id="paint2_linear" x1="-5.07578" y1="34.3337" x2="74.5968" y2="34.3337" gradientUnits="userSpaceOnUse">
<stop stop-color="#E93E3A"/>
<stop offset="0.375" stop-color="#ED683C"/>
<stop offset="0.69" stop-color="#F3903F"/>
<stop offset="1" stop-color="#FDC70C"/>
</linearGradient>
<linearGradient id="paint3_linear" x1="-5.07432" y1="27.083" x2="74.5995" y2="27.0819" gradientUnits="userSpaceOnUse">
<stop stop-color="#E93E3A"/>
<stop offset="0.375" stop-color="#ED683C"/>
<stop offset="0.69" stop-color="#F3903F"/>
<stop offset="1" stop-color="#FDC70C"/>
</linearGradient>
<linearGradient id="paint4_linear" x1="-5.07169" y1="30.1351" x2="74.6024" y2="30.1299" gradientUnits="userSpaceOnUse">
<stop stop-color="#E93E3A"/>
<stop offset="0.375" stop-color="#ED683C"/>
<stop offset="0.69" stop-color="#F3903F"/>
<stop offset="1" stop-color="#FDC70C"/>
</linearGradient>
<linearGradient id="paint5_linear" x1="-5.08468" y1="19.9821" x2="74.5879" y2="19.9821" gradientUnits="userSpaceOnUse">
<stop stop-color="#E93E3A"/>
<stop offset="0.375" stop-color="#ED683C"/>
<stop offset="0.69" stop-color="#F3903F"/>
<stop offset="1" stop-color="#FDC70C"/>
</linearGradient>
<linearGradient id="paint6_linear" x1="-5.08403" y1="19.9821" x2="74.5886" y2="19.9821" gradientUnits="userSpaceOnUse">
<stop stop-color="#E93E3A"/>
<stop offset="0.375" stop-color="#ED683C"/>
<stop offset="0.69" stop-color="#F3903F"/>
<stop offset="1" stop-color="#FDC70C"/>
</linearGradient>
</defs>
</svg>
