<svg width="64" height="64" viewBox="0 0 64 64" fill="none" xmlns="http://www.w3.org/2000/svg">
<path d="M17.4383 59.2988L18.5859 62.4531L22.2842 61.1076L21.1365 57.9533L17.4383 59.2988Z" fill="white"/>
<path d="M42.2158 61.1115L45.9141 62.457L47.0617 59.3027L43.3635 57.9572L42.2158 61.1115Z" fill="white"/>
<path d="M14.2964 39.8661L19.485 54.1052L16.2556 55.2791L11.4193 42.0081L11.3594 41.8438H11.1844H4.6875H4.4375V42.0938V63.5H1V1H63.5V63.5H60.0625V42.0938V41.8438H59.8125H53.3156H53.1405L53.0807 42.0083L48.2541 55.2751L45.0247 54.1012L50.2037 39.862L50.2188 39.8206V39.7765V29.4938V29.3509L50.0957 29.2784C42.1553 24.5974 35.9682 17.4429 32.4814 8.9104L32.25 8.34408L32.0186 8.9104C28.5318 17.4429 22.3447 24.5974 14.4043 29.2784L14.2812 29.3509V29.4938V39.7805V39.8246L14.2964 39.8661ZM4.6875 4.4375H4.4375V4.6875V21.225V21.5998L4.78356 21.4558C12.3243 18.3176 18.3176 12.3243 21.4558 4.78356L21.5998 4.4375H21.225H4.6875ZM10.5938 38.4062H10.8438V38.1562V31.5491V31.1604L10.49 31.3217C8.58882 32.1885 6.6262 32.914 4.61832 33.4922L4.4375 33.5443V33.7325V38.1562V38.4062H4.6875H10.5938ZM4.4375 29.6394V29.982L4.76372 29.8775C16.7013 26.0562 26.0562 16.7013 29.8775 4.76372L29.982 4.4375H29.6394H25.4775H25.3021L25.2424 4.60242C21.7671 14.205 14.205 21.7671 4.60242 25.2424L4.4375 25.3021V25.4775V29.6394ZM59.8125 38.4062H60.0625V38.1562V33.7325V33.5443L59.8817 33.4922C57.8738 32.914 55.9112 32.1885 54.01 31.3217L53.6562 31.1604V31.5491V38.1562V38.4062H53.9062H59.8125ZM59.7363 29.8775L60.0625 29.982V29.6394V25.5799V25.4028L59.8954 25.344C50.1596 21.9203 42.4754 14.3063 38.9623 4.6024L38.9026 4.4375H38.7272H34.8606H34.518L34.6225 4.76372C38.4438 16.7013 47.7987 26.0562 59.7363 29.8775ZM59.7189 21.5651L60.0625 21.7038V21.3333V4.6875V4.4375H59.8125H42.9836H42.6087L42.7528 4.78362C45.9345 12.4225 52.0457 18.4672 59.7189 21.5651Z" fill="white" stroke="white" stroke-width="0.5"/>
</svg>
