<svg width="46" height="81" viewBox="0 0 46 81" fill="none" xmlns="http://www.w3.org/2000/svg">
<path fill-rule="evenodd" clip-rule="evenodd" d="M43 3H3V78H43V3ZM3 0H0V3V78V81H3H43H46V78V3V0H43H3ZM12.8555 59.5V69.9893H33.1406V59.501C30.3672 61.7412 26.8398 63.083 23 63.083C19.1562 63.083 15.6289 61.7412 12.8555 59.5ZM9.85547 56.3184V69.9893V72.9893H12.8555H33.1406H36.1406V69.9893V56.3184V47.1758C36.0859 50.2598 34.9688 53.0859 33.1406 55.3018C30.7305 58.2217 27.082 60.083 23 60.083C18.9141 60.083 15.2656 58.2217 12.8555 55.3008C11.0273 53.085 9.91016 50.2598 9.85547 47.1758V56.3184ZM33.1406 21.1533V39.373C33.1406 44.9756 28.6016 49.5166 23 49.5166C17.3984 49.5166 12.8555 44.9756 12.8555 39.373V21.1533C12.8555 15.5518 17.3984 11.0107 23 11.0107C28.6016 11.0107 33.1406 15.5518 33.1406 21.1533ZM9.85547 21.1533C9.85547 13.8945 15.7383 8.01074 23 8.01074C30.2578 8.01074 36.1406 13.8945 36.1406 21.1533V39.373C36.1406 46.6318 30.2578 52.5166 23 52.5166C15.7383 52.5166 9.85547 46.6318 9.85547 39.373V21.1533Z" fill="white"/>
</svg>
