<svg width="73" height="73" viewBox="0 0 73 73" fill="none" xmlns="http://www.w3.org/2000/svg">
<path d="M71.7833 30.4167H45.0167V26.7667C45.0167 26.0948 44.4719 25.55 43.8 25.55H40.15V13.3833C40.15 10.0237 42.8737 7.3 46.2333 7.3C49.593 7.3 52.3167 10.0237 52.3167 13.3833V15.8167C52.3167 16.4886 52.8614 17.0333 53.5333 17.0333H58.4C59.0719 17.0333 59.6167 16.4886 59.6167 15.8167V13.3833C59.6167 5.99193 53.6247 0 46.2333 0C38.8419 0 32.85 5.99193 32.85 13.3833V25.55H29.2C28.5281 25.55 27.9833 26.0948 27.9833 26.7667V30.4167H18.25C18.9219 30.4167 19.4667 29.8719 19.4667 29.2V25.6121L20.6833 13.505C20.7506 12.8364 20.263 12.24 19.5944 12.1728C19.552 12.1685 19.5093 12.1665 19.4667 12.1667H12.1667C11.4948 12.1667 10.95 12.7114 10.95 13.3833C10.95 13.4239 10.952 13.4645 10.9561 13.505L12.1667 25.6121V29.2C12.1667 29.8719 12.7114 30.4167 13.3833 30.4167H1.21667C0.544762 30.4167 0 30.9614 0 31.6333V36.5C0 37.1719 0.544762 37.7167 1.21667 37.7167H2.49538C3.14311 48.6362 12.1779 57.1652 23.1167 57.1833H27.9833V64.4833C27.9833 69.187 31.7964 73 36.5 73C41.2036 73 45.0167 69.187 45.0167 64.4833V57.1833H49.8833C60.8221 57.1652 69.8569 48.6362 70.5046 37.7167H71.7833C72.4552 37.7167 73 37.1719 73 36.5V31.6333C73 30.9614 72.4552 30.4167 71.7833 30.4167ZM14.6 26.7667H17.0333V27.9833H14.6V26.7667ZM18.1283 14.6L17.155 24.3333H14.4905L13.5172 14.6H18.1283ZM35.2833 13.3833C35.2833 7.33574 40.1859 2.43333 46.2333 2.43333C52.2809 2.43333 57.1833 7.33574 57.1833 13.3833V14.6H54.75V13.3833C54.75 8.6797 50.937 4.86667 46.2333 4.86667C41.5297 4.86667 37.7167 8.6797 37.7167 13.3833V25.55H35.2833V13.3833ZM30.4167 27.9833H42.5833V30.4167H30.4167V27.9833ZM42.5833 64.4833C42.5833 67.843 39.8597 70.5667 36.5 70.5667C33.1403 70.5667 30.4167 67.843 30.4167 64.4833V57.1833H42.5833V64.4833ZM49.8833 54.75H23.1167C13.5146 54.7377 5.55941 47.2965 4.90682 37.7167H68.0932C67.4406 47.2965 59.4854 54.7377 49.8833 54.75ZM70.5667 35.2833H2.43333V32.85H70.5667V35.2833Z" fill="white"/>
</svg>
