<svg width="66" height="77" viewBox="0 0 66 77" fill="none" xmlns="http://www.w3.org/2000/svg">
<path fill-rule="evenodd" clip-rule="evenodd" d="M5.59375 3H56.6758V17.7637H5.59375V3ZM2.59375 20.7637V10.3818H0V7.38184H2.59375V0H59.6758V9.74707H65.5V26.2832L31.7695 34.0693V36.3369H39.7852V44.9883H37.0039L40.0039 66.8545C40.3906 69.916 39.3984 72.373 37.6055 74.0469C35.8633 75.6777 33.4688 76.4678 31.1367 76.499C28.8086 76.5293 26.3828 75.8027 24.5742 74.1924C22.7188 72.5439 21.6367 70.0752 21.8867 66.9316L21.8906 66.8887L24.8945 44.9883H22.4883V36.3369H28.7695V31.6826L62.5 23.8965V12.7471H59.6758V20.7637H2.59375ZM36.7852 39.3369H25.4883V41.9883H36.7852V39.3369ZM24.875 67.21L27.7188 46.4883H34.1836L37.0312 67.2451C37.2969 69.3789 36.6172 70.8662 35.5586 71.8545C34.4531 72.8867 32.8203 73.4756 31.0977 73.499C29.375 73.5215 27.7188 72.9775 26.5664 71.9521C25.4648 70.9707 24.707 69.4512 24.875 67.21ZM32 69.2129V66.6172H29V69.2129H32ZM48.4336 7.78613H8.64844V4.78613H48.4336V7.78613ZM51.0273 7.78613H53.6211V4.78613H51.0273V7.78613Z" fill="url(#paint0_linear)"/>
<defs>
<linearGradient id="paint0_linear" x1="-24.2065" y1="-7.08333" x2="37.0898" y2="115.544" gradientUnits="userSpaceOnUse">
<stop stop-color="#E93E3A"/>
<stop offset="0.352" stop-color="#ED683C"/>
<stop offset="0.696133" stop-color="#F38E3F"/>
<stop offset="0.91428" stop-color="#FDC70C"/>
</linearGradient>
</defs>
</svg>
