<svg width="78" height="78" viewBox="0 0 78 78" fill="none" xmlns="http://www.w3.org/2000/svg">
<path d="M0 61.1008H2.6V78.0008H9.1V61.1008H68.9V78.0008H75.4V61.1008H78V40.3008H0V61.1008ZM6.5 75.4008H5.2V61.1008H6.5V75.4008ZM72.8 75.4008H71.5V61.1008H72.8V75.4008ZM2.6 42.9008H75.4V58.5008H2.6V42.9008Z" fill="url(#paint0_linear)"/>
<path d="M74.1023 44.1992H3.90234V57.1992H74.1023V44.1992ZM6.50234 46.7992H37.7023V54.5992H6.50234V46.7992ZM71.5023 54.5992H40.3023V46.7992H71.5023V54.5992Z" fill="url(#paint1_linear)"/>
<path d="M54.6016 49.3984H59.8016V51.9984H54.6016V49.3984Z" fill="url(#paint2_linear)"/>
<path d="M18.2031 49.3984H23.4031V51.9984H18.2031V49.3984Z" fill="url(#paint3_linear)"/>
<path d="M39 39C60.8686 39 78 30.4343 78 19.5C78 8.5657 60.8686 0 39 0C17.1314 0 0 8.5657 0 19.5C0 30.4343 17.1314 39 39 39ZM39 2.6C58.7314 2.6 75.4 10.3389 75.4 19.5C75.4 28.6611 58.7314 36.4 39 36.4C19.2686 36.4 2.6 28.6611 2.6 19.5C2.6 10.3389 19.2686 2.6 39 2.6Z" fill="url(#paint4_linear)"/>
<path d="M38.9984 35.0984C59.9947 35.0984 74.0984 27.0384 74.0984 19.4984C74.0984 11.9584 59.9947 3.89844 38.9984 3.89844C18.0021 3.89844 3.89844 11.9649 3.89844 19.4984C3.89844 27.0319 18.0021 35.0984 38.9984 35.0984ZM38.9984 6.49844C59.1341 6.49844 71.4984 14.0696 71.4984 19.4984C71.4984 24.9272 59.1341 32.4984 38.9984 32.4984C18.8627 32.4984 6.49844 24.9272 6.49844 19.4984C6.49844 14.0696 18.8627 6.49844 38.9984 6.49844Z" fill="url(#paint5_linear)"/>
<path d="M15.9805 22.4805L28.9805 9.48047L30.819 11.319L17.819 24.319L15.9805 22.4805Z" fill="url(#paint6_linear)"/>
<path d="M22.4805 22.4805L35.4805 9.48047L37.319 11.319L24.319 24.319L22.4805 22.4805Z" fill="url(#paint7_linear)"/>
<defs>
<linearGradient id="paint0_linear" x1="0" y1="59.1508" x2="95.641" y2="59.1508" gradientUnits="userSpaceOnUse">
<stop stop-color="#E93E3A"/>
<stop offset="0.356" stop-color="#ED683C"/>
<stop offset="0.714" stop-color="#F3903F"/>
<stop offset="1" stop-color="#FDC70C"/>
</linearGradient>
<linearGradient id="paint1_linear" x1="-0.0717563" y1="50.6992" x2="95.5653" y2="50.6992" gradientUnits="userSpaceOnUse">
<stop stop-color="#E93E3A"/>
<stop offset="0.356" stop-color="#ED683C"/>
<stop offset="0.714" stop-color="#F3903F"/>
<stop offset="1" stop-color="#FDC70C"/>
</linearGradient>
<linearGradient id="paint2_linear" x1="-0.0725316" y1="50.6984" x2="95.5646" y2="50.6984" gradientUnits="userSpaceOnUse">
<stop stop-color="#E93E3A"/>
<stop offset="0.356" stop-color="#ED683C"/>
<stop offset="0.714" stop-color="#F3903F"/>
<stop offset="1" stop-color="#FDC70C"/>
</linearGradient>
<linearGradient id="paint3_linear" x1="-0.0709733" y1="50.6984" x2="95.5661" y2="50.6984" gradientUnits="userSpaceOnUse">
<stop stop-color="#E93E3A"/>
<stop offset="0.356" stop-color="#ED683C"/>
<stop offset="0.714" stop-color="#F3903F"/>
<stop offset="1" stop-color="#FDC70C"/>
</linearGradient>
<linearGradient id="paint4_linear" x1="0" y1="19.5" x2="95.641" y2="19.5" gradientUnits="userSpaceOnUse">
<stop stop-color="#E93E3A"/>
<stop offset="0.356" stop-color="#ED683C"/>
<stop offset="0.714" stop-color="#F3903F"/>
<stop offset="1" stop-color="#FDC70C"/>
</linearGradient>
<linearGradient id="paint5_linear" x1="-0.0756625" y1="19.4984" x2="95.5614" y2="19.4984" gradientUnits="userSpaceOnUse">
<stop stop-color="#E93E3A"/>
<stop offset="0.356" stop-color="#ED683C"/>
<stop offset="0.714" stop-color="#F3903F"/>
<stop offset="1" stop-color="#FDC70C"/>
</linearGradient>
<linearGradient id="paint6_linear" x1="-0.077169" y1="16.8981" x2="95.5585" y2="16.8972" gradientUnits="userSpaceOnUse">
<stop stop-color="#E93E3A"/>
<stop offset="0.356" stop-color="#ED683C"/>
<stop offset="0.714" stop-color="#F3903F"/>
<stop offset="1" stop-color="#FDC70C"/>
</linearGradient>
<linearGradient id="paint7_linear" x1="-0.0764104" y1="16.8983" x2="95.561" y2="16.8974" gradientUnits="userSpaceOnUse">
<stop stop-color="#E93E3A"/>
<stop offset="0.356" stop-color="#ED683C"/>
<stop offset="0.714" stop-color="#F3903F"/>
<stop offset="1" stop-color="#FDC70C"/>
</linearGradient>
</defs>
</svg>
