<svg width="75" height="63" viewBox="0 0 75 63" fill="none" xmlns="http://www.w3.org/2000/svg">
<path fill-rule="evenodd" clip-rule="evenodd" d="M28.6836 2.02734V0L26.7422 0.592773L1.0625 8.44922L0 8.77344V9.88379V59.2031V61.2979L1.98438 60.623L27.6641 51.8945L28.6836 51.5488V50.4746V2.02734ZM3 57.1094V10.9932L25.6836 4.05469V49.3994L3 57.1094ZM30.6641 1.1543V62.2588H33.6641V1.1543H30.6641ZM71.582 1.1543V62.2588H74.582V1.1543H71.582ZM65.9727 4.1543H38.8906V47.0371H65.9727V4.1543ZM38.8906 1.1543H35.8906V4.1543V47.0371V50.0371H38.8906H65.9727H68.9727V47.0371V4.1543V1.1543H65.9727H38.8906Z" fill="url(#paint0_linear)"/>
<defs>
<linearGradient id="paint0_linear" x1="-27.5629" y1="-5.7647" x2="11.9565" y2="104.851" gradientUnits="userSpaceOnUse">
<stop stop-color="#E93E3A"/>
<stop offset="0.352" stop-color="#ED683C"/>
<stop offset="0.696133" stop-color="#F38E3F"/>
<stop offset="0.91428" stop-color="#FDC70C"/>
</linearGradient>
</defs>
</svg>
