<svg width="63" height="63" viewBox="0 0 63 63" fill="none" xmlns="http://www.w3.org/2000/svg">
<path d="M16.6883 58.5488L17.8359 61.7031L21.5342 60.3576L20.3865 57.2033L16.6883 58.5488Z" fill="url(#paint0_linear)"/>
<path d="M41.4658 60.3615L45.1641 61.707L46.3117 58.5527L42.6135 57.2072L41.4658 60.3615Z" fill="url(#paint1_linear)"/>
<path d="M13.5464 39.1161L18.735 53.3552L15.5056 54.5291L10.6693 41.2581L10.6094 41.0938H10.4344H3.9375H3.6875V41.3438V62.75H0.25V0.25H62.75V62.75H59.3125V41.3438V41.0938H59.0625H52.5656H52.3905L52.3307 41.2583L47.5041 54.5251L44.2747 53.3512L49.4537 39.112L49.4688 39.0706V39.0265V28.7438V28.6009L49.3457 28.5284C41.4053 23.8474 35.2182 16.6929 31.7314 8.1604L31.5 7.59408L31.2686 8.1604C27.7818 16.6929 21.5947 23.8474 13.6543 28.5284L13.5312 28.6009V28.7438V39.0305V39.0746L13.5464 39.1161ZM3.9375 3.6875H3.6875V3.9375V20.475V20.8498L4.03356 20.7058C11.5743 17.5676 17.5676 11.5743 20.7058 4.03356L20.8498 3.6875H20.475H3.9375ZM9.84375 37.6562H10.0938V37.4062V30.7991V30.4104L9.74004 30.5717C7.83882 31.4385 5.8762 32.164 3.86832 32.7422L3.6875 32.7943V32.9825V37.4062V37.6562H3.9375H9.84375ZM3.6875 28.8894V29.232L4.01372 29.1275C15.9513 25.3062 25.3062 15.9513 29.1275 4.01372L29.232 3.6875H28.8894H24.7275H24.5521L24.4924 3.85242C21.0171 13.455 13.455 21.0171 3.85242 24.4924L3.6875 24.5521V24.7275V28.8894ZM59.0625 37.6562H59.3125V37.4062V32.9825V32.7943L59.1317 32.7422C57.1238 32.164 55.1612 31.4385 53.26 30.5717L52.9062 30.4104V30.7991V37.4062V37.6562H53.1562H59.0625ZM58.9863 29.1275L59.3125 29.232V28.8894V24.8299V24.6528L59.1454 24.594C49.4096 21.1703 41.7254 13.5563 38.2123 3.8524L38.1526 3.6875H37.9772H34.1106H33.768L33.8725 4.01372C37.6938 15.9513 47.0487 25.3062 58.9863 29.1275ZM58.9689 20.8151L59.3125 20.9538V20.5833V3.9375V3.6875H59.0625H42.2336H41.8587L42.0028 4.03362C45.1845 11.6725 51.2957 17.7172 58.9689 20.8151Z" fill="url(#paint2_linear)" stroke="white" stroke-width="0.5"/>
<defs>
<linearGradient id="paint0_linear" x1="17.9176" y1="62.9934" x2="22.756" y2="57.8698" gradientUnits="userSpaceOnUse">
<stop stop-color="#E93E3A"/>
<stop offset="0.352" stop-color="#ED683C"/>
<stop offset="0.696133" stop-color="#F38E3F"/>
<stop offset="0.91428" stop-color="#FDC70C"/>
</linearGradient>
<linearGradient id="paint1_linear" x1="46.4245" y1="62.4964" x2="46.4178" y2="56.1792" gradientUnits="userSpaceOnUse">
<stop stop-color="#E93E3A"/>
<stop offset="0.352" stop-color="#ED683C"/>
<stop offset="0.696133" stop-color="#F38E3F"/>
<stop offset="0.91428" stop-color="#FDC70C"/>
</linearGradient>
<linearGradient id="paint2_linear" x1="-23.2826" y1="-5.83333" x2="22.3744" y2="100.846" gradientUnits="userSpaceOnUse">
<stop stop-color="#E93E3A"/>
<stop offset="0.352" stop-color="#ED683C"/>
<stop offset="0.696133" stop-color="#F38E3F"/>
<stop offset="0.91428" stop-color="#FDC70C"/>
</linearGradient>
</defs>
</svg>
