<svg width="70" height="70" viewBox="0 0 70 70" fill="none" xmlns="http://www.w3.org/2000/svg">
<path fill-rule="evenodd" clip-rule="evenodd" d="M4.56641 0H65.4336C67.9531 0 70 2.04785 70 4.56543V65.4346C70 67.9521 67.9531 70 65.4336 70H4.56641C2.04688 70 0 67.9521 0 65.4346V4.56543C0 2.04785 2.04688 0 4.56641 0ZM65.4336 66.9561C66.2734 66.9561 66.957 66.2734 66.957 65.4346V4.56543C66.957 3.72656 66.2734 3.04395 65.4336 3.04395H4.56641C3.72656 3.04395 3.04297 3.72656 3.04297 4.56543V65.4346C3.04297 66.2734 3.72656 66.9561 4.56641 66.9561H65.4336ZM15.2148 12.1738C15.2148 13.8545 13.8516 15.2168 12.1719 15.2168C10.4922 15.2168 9.12891 13.8545 9.12891 12.1738C9.12891 10.4922 10.4922 9.12988 12.1719 9.12988C13.8516 9.12988 15.2148 10.4922 15.2148 12.1738ZM12.1719 60.8691C13.8516 60.8691 15.2148 59.5068 15.2148 57.8262C15.2148 56.1445 13.8516 54.7822 12.1719 54.7822C10.4922 54.7822 9.12891 56.1445 9.12891 57.8262C9.12891 59.5068 10.4922 60.8691 12.1719 60.8691ZM60.8711 12.1738C60.8711 13.8545 59.5078 15.2168 57.8281 15.2168C56.1484 15.2168 54.7852 13.8545 54.7852 12.1738C54.7852 10.4922 56.1484 9.12988 57.8281 9.12988C59.5078 9.12988 60.8711 10.4922 60.8711 12.1738ZM57.8281 60.8691C59.5078 60.8691 60.8711 59.5068 60.8711 57.8262C60.8711 56.1445 59.5078 54.7822 57.8281 54.7822C56.1484 54.7822 54.7852 56.1445 54.7852 57.8262C54.7852 59.5068 56.1484 60.8691 57.8281 60.8691ZM51.1445 18.8584L51.1875 18.9258C55.2891 23.0547 57.8281 28.7354 57.8281 35C57.8281 41.2695 55.2852 46.9551 51.1797 51.085L51.1406 51.1406C51.125 51.1582 51.1016 51.1641 51.082 51.1787C46.957 55.2832 41.2695 57.8262 35 57.8262C28.7305 57.8262 23.043 55.2812 18.9141 51.1729C18.8984 51.1592 18.8789 51.1562 18.8672 51.1406L18.832 51.0928C14.7227 46.9619 12.1797 41.2754 12.1758 34.9951C12.1797 28.7285 14.7188 23.0479 18.8242 18.9199L18.8398 18.8926L18.8633 18.8584L18.9219 18.8193C23.0508 14.7148 28.7344 12.1738 35 12.1738C41.2695 12.1738 46.9492 14.7139 51.0781 18.8145L51.1445 18.8584ZM42.457 33.4785H54.707C54.3789 29.1689 52.668 25.2451 50.0117 22.1455L41.3438 30.8125C41.8711 31.6113 42.2578 32.5088 42.457 33.4785ZM47.8594 19.9951C44.7578 17.3359 40.8359 15.625 36.5234 15.2949V27.5449C37.4922 27.7432 38.3945 28.1309 39.1914 28.6602L47.8594 19.9951ZM33.4805 27.5449V15.2949C29.1719 15.625 25.2461 17.3359 22.1484 19.9941L30.8125 28.6592C31.6094 28.1289 32.5117 27.7432 33.4805 27.5449ZM28.6602 30.8125L19.9961 22.1455C17.3359 25.2441 15.6289 29.167 15.2969 33.4795H27.5469C27.7461 32.5107 28.1328 31.6094 28.6602 30.8125ZM27.5469 36.5215H15.2969C15.6289 40.833 17.3359 44.7568 19.9961 47.8555L28.6641 39.1904C28.1328 38.3916 27.7461 37.4922 27.5469 36.5215ZM22.1484 50.0068C25.2461 52.6641 29.1719 54.375 33.4805 54.7051V42.4551C32.5117 42.2588 31.6133 41.8701 30.8125 41.3428L22.1484 50.0068ZM30.4375 35C30.4375 36.2588 30.9492 37.3994 31.7773 38.2295C32.6055 39.0537 33.7461 39.5654 35 39.5654C37.5195 39.5654 39.5664 37.5166 39.5664 35C39.5664 32.4834 37.5195 30.4346 35 30.4346C32.4844 30.4346 30.4375 32.4834 30.4375 35ZM36.5234 42.4551V54.7051C40.8359 54.375 44.7578 52.666 47.8594 50.0068L39.1914 41.3408C38.3906 41.8701 37.4922 42.2568 36.5234 42.4551ZM41.3438 39.1895L50.0078 47.8555C52.668 44.7559 54.3789 40.833 54.707 36.5215H42.457C42.2578 37.4912 41.8711 38.3906 41.3438 39.1895Z" fill="white"/>
</svg>
