<svg width="65" height="39" viewBox="0 0 65 39" fill="none" xmlns="http://www.w3.org/2000/svg">
<path d="M53.1793 25.5H19.2037V10.5C19.2037 9.67163 18.5423 9 17.7264 9H8.86321C8.52766 8.99986 8.20207 9.11573 7.93992 9.3285L0.553951 15.3286C0.203715 15.6133 -0.000138417 16.0443 7.05153e-08 16.5001V33.0001C7.05153e-08 33.8285 0.661417 34.5001 1.47725 34.5001H2.9545C2.9545 36.9854 4.93861 39.0001 7.3861 39.0001C9.8336 39.0001 11.8177 36.9854 11.8177 34.5001H33.9757C33.9757 36.9854 35.9599 39.0001 38.4073 39.0001C40.8548 39.0001 42.839 36.9854 42.839 34.5001C42.839 36.9854 44.8231 39.0001 47.2706 39.0001C49.7181 39.0001 51.7022 36.9854 51.7022 34.5001H53.1793C53.9951 34.5001 54.6565 33.8285 54.6565 33.0001V27C54.6565 26.1716 53.9951 25.5 53.1793 25.5ZM2.95436 24.0001H16.2492V25.5001H2.95436V24.0001ZM2.95436 17.22L9.38171 12H16.2492V21H2.95436V17.22ZM7.38596 36C6.57013 36 5.90872 35.3284 5.90872 34.5C5.90872 33.6716 6.57013 32.9999 7.38596 32.9999C8.2018 32.9999 8.86321 33.6716 8.86321 34.5C8.86321 35.3284 8.2018 36 7.38596 36ZM38.4072 36C37.5914 36 36.93 35.3284 36.93 34.5C36.93 33.6716 37.5914 32.9999 38.4072 32.9999C39.223 32.9999 39.8845 33.6716 39.8845 34.5C39.8845 35.3284 39.223 36 38.4072 36ZM47.2704 36C46.4546 36 45.7932 35.3284 45.7932 34.5C45.7932 33.6716 46.4546 32.9999 47.2704 32.9999C48.0863 32.9999 48.7477 33.6716 48.7477 34.5C48.7477 35.3284 48.0863 36 47.2704 36ZM51.702 31.5H50.5498C48.9476 29.6609 46.1805 29.4889 44.3694 31.1158C44.2357 31.2359 44.1093 31.3642 43.991 31.5H41.6866C40.0844 29.6609 37.3173 29.4889 35.5062 31.1158C35.3725 31.2359 35.2461 31.3642 35.1278 31.5H10.6654C9.06319 29.6609 6.29607 29.4889 4.48492 31.1158C4.35128 31.2359 4.22484 31.3642 4.10658 31.5H2.95436V28.5001H51.702V31.5Z" fill="url(#paint0_linear)"/>
<path d="M53.1821 21H23.6381V2.99996H53.1821V4.5H56.1364V1.50005C56.1364 0.671626 55.475 0 54.6592 0H22.1608C21.345 0 20.6836 0.671626 20.6836 1.50005V22.5C20.6836 23.3284 21.345 24.0001 22.1608 24.0001H54.6593C55.4752 24.0001 56.1366 23.3284 56.1366 22.5V19.5001H53.1821V21Z" fill="url(#paint1_linear)"/>
<path d="M50.2305 6H63.5253V8.99995H50.2305V6Z" fill="url(#paint2_linear)"/>
<path d="M47.2734 12H59.091V15H47.2734V12Z" fill="url(#paint3_linear)"/>
<path d="M60.5664 12H63.5208V15H60.5664V12Z" fill="url(#paint4_linear)"/>
<path d="M57.6094 18H60.5637V21H57.6094V18Z" fill="url(#paint5_linear)"/>
<path d="M62.043 18H64.9973V21H62.043V18Z" fill="url(#paint6_linear)"/>
<defs>
<linearGradient id="paint0_linear" x1="-1.79956" y1="23.9973" x2="87.4503" y2="23.9973" gradientUnits="userSpaceOnUse">
<stop stop-color="#E93E3A"/>
<stop offset="0.358" stop-color="#ED683C"/>
<stop offset="0.715" stop-color="#F3903F"/>
<stop offset="1" stop-color="#FDC70C"/>
</linearGradient>
<linearGradient id="paint1_linear" x1="-1.79675" y1="11.9973" x2="87.4531" y2="11.9973" gradientUnits="userSpaceOnUse">
<stop stop-color="#E93E3A"/>
<stop offset="0.358" stop-color="#ED683C"/>
<stop offset="0.715" stop-color="#F3903F"/>
<stop offset="1" stop-color="#FDC70C"/>
</linearGradient>
<linearGradient id="paint2_linear" x1="-1.79401" y1="7.4972" x2="87.4559" y2="7.4972" gradientUnits="userSpaceOnUse">
<stop stop-color="#E93E3A"/>
<stop offset="0.358" stop-color="#ED683C"/>
<stop offset="0.715" stop-color="#F3903F"/>
<stop offset="1" stop-color="#FDC70C"/>
</linearGradient>
<linearGradient id="paint3_linear" x1="-1.79653" y1="13.4973" x2="87.4533" y2="13.4973" gradientUnits="userSpaceOnUse">
<stop stop-color="#E93E3A"/>
<stop offset="0.358" stop-color="#ED683C"/>
<stop offset="0.715" stop-color="#F3903F"/>
<stop offset="1" stop-color="#FDC70C"/>
</linearGradient>
<linearGradient id="paint4_linear" x1="-1.79833" y1="13.4973" x2="87.4515" y2="13.4973" gradientUnits="userSpaceOnUse">
<stop stop-color="#E93E3A"/>
<stop offset="0.358" stop-color="#ED683C"/>
<stop offset="0.715" stop-color="#F3903F"/>
<stop offset="1" stop-color="#FDC70C"/>
</linearGradient>
<linearGradient id="paint5_linear" x1="-1.80109" y1="19.4973" x2="87.4488" y2="19.4973" gradientUnits="userSpaceOnUse">
<stop stop-color="#E93E3A"/>
<stop offset="0.358" stop-color="#ED683C"/>
<stop offset="0.715" stop-color="#F3903F"/>
<stop offset="1" stop-color="#FDC70C"/>
</linearGradient>
<linearGradient id="paint6_linear" x1="-1.7991" y1="19.4973" x2="87.4508" y2="19.4973" gradientUnits="userSpaceOnUse">
<stop stop-color="#E93E3A"/>
<stop offset="0.358" stop-color="#ED683C"/>
<stop offset="0.715" stop-color="#F3903F"/>
<stop offset="1" stop-color="#FDC70C"/>
</linearGradient>
</defs>
</svg>
