<svg width="66" height="63" viewBox="0 0 66 63" fill="none" xmlns="http://www.w3.org/2000/svg">
<path d="M20.3865 14.7715L20.0847 14.9967H20.4613H26.3657C29.5308 14.9967 32.0998 17.6007 32.0998 20.8167V34.1932C32.0998 34.9467 31.4982 35.5545 30.76 35.5545H27.8305H27.7055V35.6795V60.9461C27.7055 61.6996 27.1039 62.3074 26.3657 62.3074H5.85909C5.12088 62.3074 4.51928 61.6996 4.51928 60.9461V35.6795V35.5545H4.39428H1.46481C0.726595 35.5545 0.125 34.9467 0.125 34.1932V20.8167C0.125 17.6007 2.69399 14.9967 5.85909 14.9967H11.7635H12.1401L11.8382 14.7715C10.0056 13.4043 8.91991 11.2356 8.91356 8.92621V7.44023V7.44011C8.91005 3.96128 11.3235 0.964061 14.6802 0.272488C18.5746 -0.529866 22.3756 2.02284 23.1671 5.97858L23.1872 6.07905H23.2897H27.7055V8.80155H23.4362H23.3116L23.3112 8.92621C23.3049 11.2356 22.2192 13.4044 20.3865 14.7715ZM16.1128 2.85641L16.1118 2.85641C14.2024 2.86444 12.5052 4.08861 11.8696 5.91278L11.8117 6.07891H11.9876H20.237H20.413L20.3551 5.91278C19.7195 4.08861 18.0223 2.86444 16.1128 2.85641ZM20.6316 8.92655V8.80155H20.5066H11.718H11.593V8.92655C11.593 11.4564 13.6147 13.5104 16.1123 13.5104C18.61 13.5104 20.6316 11.4564 20.6316 8.92655ZM24.9009 55.1261H25.0259V55.0011V37.1658V37.0408H24.9009H7.32376H7.19876V37.1658V55.0011V55.1261H7.32376H14.6477H14.7727V55.0011V41.7496H17.4521V55.0011V55.1261H17.5771H24.9009ZM24.9009 34.3182H25.0259V34.1932V17.8442V17.7192H24.9009H20.5066H20.3816V17.8442V19.3305C20.3816 21.7257 18.4685 23.6643 16.1123 23.6643C13.7562 23.6643 11.843 21.7257 11.843 19.3305V17.8442V17.7192H11.718H7.32376H7.19876V17.8442V34.1932V34.3182H7.32376H24.9009ZM17.7021 17.8442V17.7192H17.5771H14.6475H14.5225V17.8442V19.3305C14.5225 20.2187 15.2326 20.9418 16.1123 20.9418C16.992 20.9418 17.7021 20.2187 17.7021 19.3305V17.8442ZM2.80448 32.707V32.832H2.92948H4.39428H4.51928V32.707V18.2441V18.026L4.33109 18.1362C3.38641 18.6897 2.80505 19.7115 2.80448 20.8168V20.8168V32.707ZM7.32376 57.8486H7.19876V57.9736V59.4599V59.5849H7.32376H14.6475H14.7725V59.4599V57.9736V57.8486H14.6475H7.32376ZM17.4521 59.4599V59.5849H17.5771H24.9009H25.0259V59.4599V57.9736V57.8486H24.9009H17.5771H17.4521V57.9736V59.4599ZM29.2952 32.832H29.4202V32.707V20.8167V20.8166C29.4196 19.7114 28.8382 18.6896 27.8936 18.1361L27.7054 18.0259V18.244V32.707V32.832H27.8304H29.2952Z" fill="url(#paint0_linear)" stroke="white" stroke-width="0.25"/>
<path d="M62.9867 13.5096H63.1117V13.3846V8.92577V8.80077H62.9867H54.1981H54.0731V8.92577V13.3846V13.5096H54.1981H62.9867ZM36.621 16.2321H36.496V16.3571V31.2199V31.3449H36.621H62.9867H63.1117V31.2199V16.3571V16.2321H62.9867H54.1981H54.0731V16.3571V19.3296C54.0731 20.0831 53.4716 20.6909 52.7333 20.6909H46.8744C46.1362 20.6909 45.5346 20.0831 45.5346 19.3296V16.3571V16.2321H45.4096H36.621ZM48.3391 16.2321H48.2141V16.3571V17.8434V17.9684H48.3391H51.2685H51.3935V17.8434V16.3571V16.2321H51.2685H48.3391ZM51.3935 8.92577V8.80077H51.2685H48.3391H48.2141V8.92577V13.3846V13.5096H48.3391H51.2685H51.3935V13.3846V8.92577ZM45.5346 8.92577V8.80077H45.4096H36.621H36.496V8.92577V13.3846V13.5096H36.621H45.4096H45.5346V13.3846V8.92577ZM63.1117 37.165V37.04H62.9867H54.1981H54.0731V37.165V41.6238V41.7488H54.1981H62.9867H63.1117V41.6238V37.165ZM48.2141 41.6238V41.7488H48.3391H51.2685V41.6238H51.3935V37.165V37.04H51.2685H48.3391H48.2141V37.165V41.6238ZM48.3391 44.4714H48.2141V44.5964V46.0827V46.2077H48.3391H51.2685H51.3935V46.0827V44.5964V44.4714H51.2685H48.3391ZM45.4096 41.7488H45.5346V41.6238V37.165V37.04H45.4096H36.621H36.496V37.165V41.6238V41.7488H36.621H45.4096ZM36.621 44.4714H36.496V44.5964V59.4591H36.621V59.5841H62.9867H63.1117V59.4591V44.5964V44.4714H62.9867H54.1981H54.0731V44.5964V47.5688C54.0731 48.3224 53.4716 48.9302 52.7333 48.9302H46.8744C46.1362 48.9302 45.5346 48.3224 45.5346 47.5688V44.5964V44.4714H45.4096H36.621ZM64.4514 34.1924V34.3174C65.1896 34.3174 65.7912 34.9252 65.7912 35.6787V60.9453C65.7912 61.6988 65.1896 62.3066 64.4514 62.3066H35.1562C34.418 62.3066 33.8164 61.6988 33.8164 60.9453V35.6787C33.8164 34.9252 34.418 34.3174 35.1562 34.3174V34.1924V34.0674C34.418 34.0674 33.8164 33.4596 33.8164 32.7061V7.43945C33.8164 6.68591 34.418 6.07812 35.1562 6.07812H64.4514C65.1896 6.07812 65.7912 6.68591 65.7912 7.43945V32.7062C65.7912 33.4597 65.1896 34.0674 64.4514 34.0674V34.1924Z" fill="url(#paint1_linear)" stroke="white" stroke-width="0.25"/>
<defs>
<linearGradient id="paint0_linear" x1="-1.63636" y1="31.2134" x2="89.6141" y2="31.2134" gradientUnits="userSpaceOnUse">
<stop stop-color="#E93E3A"/>
<stop offset="0.358" stop-color="#ED683C"/>
<stop offset="0.715" stop-color="#F3903F"/>
<stop offset="1" stop-color="#FDC70C"/>
</linearGradient>
<linearGradient id="paint1_linear" x1="-1.63441" y1="34.1896" x2="89.6161" y2="34.1896" gradientUnits="userSpaceOnUse">
<stop stop-color="#E93E3A"/>
<stop offset="0.358" stop-color="#ED683C"/>
<stop offset="0.715" stop-color="#F3903F"/>
<stop offset="1" stop-color="#FDC70C"/>
</linearGradient>
</defs>
</svg>
