<svg width="45" height="62" viewBox="0 0 45 62" fill="none" xmlns="http://www.w3.org/2000/svg">
<path d="M24.6941 19.5081L22.4993 12.7422L20.3046 19.5081H13.2109L18.9546 23.6888L16.7588 30.4578L22.4993 26.2843L28.2399 30.4619L26.0441 23.6929L31.7878 19.5081H24.6941ZM24.3474 25.0882L22.4993 23.7432L20.6513 25.0882L21.36 22.9054L19.515 21.5615H21.7896L22.4993 19.3736L23.2091 21.5615H25.4837L23.6428 22.9054L24.3474 25.0882Z" fill="url(#paint0_linear)"/>
<path d="M43.3698 26.1037C44.2856 25.1448 44.8589 23.9081 45 22.5873C44.8589 21.2664 44.2856 20.0298 43.3698 19.0708C42.8987 18.54 42.5238 17.9306 42.2622 17.27C42.1508 16.5361 42.1692 15.7881 42.3164 15.0606C42.6204 13.8026 42.5049 12.4795 41.9881 11.2936C41.2151 10.2378 40.117 9.46727 38.8636 9.10164C38.1741 8.8723 37.5304 8.52233 36.9624 8.06776C36.5103 7.49769 36.1624 6.8519 35.9345 6.16016C35.5698 4.90221 34.802 3.80005 33.75 3.02464C32.5675 2.50411 31.2473 2.38796 29.9925 2.69405C29.2676 2.84125 28.5227 2.85973 27.7916 2.74846C27.134 2.4855 26.5272 2.10921 25.9988 1.63655C25.0447 0.718044 23.8143 0.142454 22.5 0C21.1843 0.141684 19.9524 0.717146 18.9972 1.63655C18.4684 2.10947 17.8613 2.48575 17.2033 2.74846C16.4722 2.85973 15.7272 2.84125 15.0024 2.69405C13.7494 2.38848 12.4311 2.50424 11.25 3.02361C10.1983 3.79954 9.4307 4.90195 9.06648 6.16016C8.83803 6.85241 8.4894 7.49859 8.03659 8.06879C7.46872 8.52259 6.82543 8.87179 6.13636 9.10062C4.88327 9.46676 3.78537 10.2376 3.01295 11.2936C2.49443 12.4809 2.37874 13.8061 2.68364 15.0657C2.83078 15.7932 2.84919 16.5412 2.73784 17.2752C2.47589 17.9353 2.10107 18.5444 1.63023 19.0749C0.71527 20.0327 0.141903 21.2678 0 22.5873C0.141136 23.9081 0.714375 25.1448 1.63023 26.1037C2.10132 26.6345 2.47615 27.244 2.73784 27.9045C2.84919 28.6385 2.83078 29.3864 2.68364 30.114C2.37963 31.3719 2.49507 32.6951 3.01193 33.8809C3.78486 34.9367 4.88301 35.7073 6.13636 36.0729C6.82594 36.3022 7.46962 36.6522 8.03761 37.1068C8.48966 37.6768 8.83751 38.3226 9.06545 39.0144L9.20455 39.348V62L22.5 57.5503L35.7955 62V39.347C35.8415 39.2361 35.8885 39.1253 35.9335 39.0164C36.162 38.3242 36.5106 37.678 36.9634 37.1078C37.5311 36.6534 38.1744 36.3033 38.8636 36.0739C40.1167 35.7078 41.2146 34.937 41.987 33.8809C42.5056 32.6937 42.6213 31.3685 42.3164 30.1088C42.1692 29.3813 42.1508 28.6333 42.2622 27.8994C42.5245 27.2408 42.8993 26.6331 43.3698 26.1037ZM23.5227 55.729V48.2546H21.4773V55.729L11.25 59.1499V49.2813H18.4091V47.2279H11.25V42.152C12.4319 42.6699 13.7501 42.7853 15.0034 42.4805C15.7283 42.3338 16.4731 42.3153 17.2043 42.4261C17.8619 42.689 18.4687 43.0653 18.9972 43.538C19.9524 44.4574 21.1843 45.0329 22.5 45.1745C23.8157 45.0329 25.0476 44.4574 26.0028 43.538C26.5316 43.0651 27.1387 42.6888 27.7967 42.4261C28.528 42.3155 29.2728 42.3338 29.9976 42.4805C31.2506 42.7855 32.5686 42.6702 33.75 42.152V51.3347H30.6818V53.3881H33.75V59.1499L23.5227 55.729ZM41.7467 24.8522C41.1012 25.5888 40.6055 26.4451 40.2873 27.3727C40.093 28.3646 40.093 29.3849 40.2873 30.3768C40.4967 31.1928 40.4723 32.0516 40.2167 32.8542C39.6451 33.49 38.904 33.9482 38.0812 34.1745C37.1387 34.4951 36.2677 34.9978 35.5173 35.654C34.8636 36.4073 34.3629 37.2817 34.0435 38.2279C33.8181 39.0548 33.3614 39.7995 32.7273 40.3737C31.9272 40.6295 31.0717 40.654 30.2584 40.4446C29.2708 40.2485 28.2545 40.2485 27.2669 40.4446C26.3425 40.7637 25.4892 41.2614 24.7551 41.9096C24.1364 42.5244 23.3528 42.9453 22.5 43.1212C21.6467 42.9452 20.8629 42.524 20.2439 41.9086C19.5101 41.2607 18.6571 40.763 17.7331 40.4435C17.3253 40.3382 16.9054 40.2873 16.4843 40.2926C15.9021 40.3056 15.3213 40.3563 14.7457 40.4446C13.9312 40.6559 13.0737 40.631 12.2727 40.3727C11.6394 39.7989 11.183 39.0549 10.9575 38.229C10.6382 37.2827 10.1374 36.4084 9.48375 35.655C8.73332 34.9988 7.86234 34.4961 6.91977 34.1756C6.09609 33.9493 5.35423 33.4908 4.78227 32.8542C4.52646 32.0512 4.50192 31.1921 4.7117 30.3758C4.90602 29.3842 4.90602 28.3642 4.7117 27.3727C4.39376 26.4447 3.898 25.588 3.25227 24.8511C2.63991 24.23 2.2206 23.4434 2.04545 22.5873C2.22072 21.7306 2.6403 20.9438 3.2533 20.3224C3.89876 19.5857 4.39453 18.7295 4.71273 17.8018C4.90705 16.8099 4.90705 15.7897 4.71273 14.7977C4.50332 13.9818 4.52774 13.1229 4.7833 12.3203C5.35487 11.6845 6.09597 11.2264 6.91875 11C7.86132 10.6794 8.7323 10.1767 9.48273 9.52053C10.1364 8.7672 10.6371 7.89284 10.9565 6.94661C11.1819 6.11974 11.6386 5.375 12.2727 4.80082C13.0726 4.54453 13.9284 4.52002 14.7416 4.72998C15.7292 4.92659 16.7455 4.92659 17.7331 4.72998C18.6575 4.41081 19.5108 3.91312 20.2449 3.26489C20.8636 2.65015 21.6472 2.22921 22.5 2.05339C23.3533 2.22934 24.1371 2.65054 24.7561 3.26591C25.4899 3.91389 26.3429 4.41158 27.2669 4.73101C28.2548 4.92762 29.2716 4.92762 30.2594 4.73101C31.0724 4.52143 31.9276 4.54594 32.7273 4.80185C33.3606 5.37564 33.817 6.11961 34.0425 6.94559C34.3618 7.89181 34.8626 8.76617 35.5163 9.51951C36.2667 10.1757 37.1377 10.6784 38.0802 10.999C38.9039 11.2252 39.6458 11.6838 40.2177 12.3203C40.4735 13.1233 40.4981 13.9824 40.2883 14.7988C40.094 15.7903 40.094 16.8103 40.2883 17.8018C40.6062 18.7299 41.102 19.5865 41.7477 20.3234C42.3601 20.9446 42.7794 21.7311 42.9545 22.5873C42.7793 23.4439 42.3597 24.2307 41.7467 24.8522Z" fill="url(#paint1_linear)"/>
<path d="M22.5004 6.16016C13.463 6.16016 6.13672 13.5149 6.13672 22.5873C6.13672 31.6596 13.463 39.0144 22.5004 39.0144C31.5377 39.0144 38.864 31.6596 38.864 22.5873C38.8533 13.5192 31.5333 6.17094 22.5004 6.16016ZM27.8052 35.9343C20.4603 38.8755 12.1309 35.2825 9.20119 27.909C6.27146 20.5355 9.8505 12.1739 17.1955 9.2328C24.5404 6.2917 32.8698 9.88462 35.7995 17.2581C36.4731 18.9534 36.8189 20.7621 36.8185 22.5873C36.8079 28.4656 33.2408 33.7479 27.8052 35.9343Z" fill="url(#paint2_linear)"/>
<path d="M26.5898 51.3359H28.6353V53.3893H26.5898V51.3359Z" fill="url(#paint3_linear)"/>
<defs>
<linearGradient id="paint0_linear" x1="-0.353496" y1="21.602" x2="52.8529" y2="21.602" gradientUnits="userSpaceOnUse">
<stop stop-color="#E93E3A"/>
<stop offset="0.356" stop-color="#ED683C"/>
<stop offset="0.713" stop-color="#F3903F"/>
<stop offset="1" stop-color="#FDC70C"/>
</linearGradient>
<linearGradient id="paint1_linear" x1="-0.352841" y1="31" x2="52.8535" y2="31" gradientUnits="userSpaceOnUse">
<stop stop-color="#E93E3A"/>
<stop offset="0.356" stop-color="#ED683C"/>
<stop offset="0.713" stop-color="#F3903F"/>
<stop offset="1" stop-color="#FDC70C"/>
</linearGradient>
<linearGradient id="paint2_linear" x1="-0.352486" y1="22.5873" x2="52.8539" y2="22.5873" gradientUnits="userSpaceOnUse">
<stop stop-color="#E93E3A"/>
<stop offset="0.356" stop-color="#ED683C"/>
<stop offset="0.713" stop-color="#F3903F"/>
<stop offset="1" stop-color="#FDC70C"/>
</linearGradient>
<linearGradient id="paint3_linear" x1="-0.353904" y1="52.3626" x2="52.8525" y2="52.3626" gradientUnits="userSpaceOnUse">
<stop stop-color="#E93E3A"/>
<stop offset="0.356" stop-color="#ED683C"/>
<stop offset="0.713" stop-color="#F3903F"/>
<stop offset="1" stop-color="#FDC70C"/>
</linearGradient>
</defs>
</svg>
